<?xml version="1.0" encoding="UTF-8"?><svg xmlns="http://www.w3.org/2000/svg" xmlns:xlink="http://www.w3.org/1999/xlink" stroke-dasharray="none" shape-rendering="auto" font-family="'Dialog'" width="310" text-rendering="auto" fill-opacity="1" contentScriptType="text/ecmascript" color-interpolation="auto" color-rendering="auto" preserveAspectRatio="xMidYMid meet" font-size="12" viewBox="0 0 310 230" fill="black" stroke="black" image-rendering="auto" stroke-miterlimit="10" zoomAndPan="magnify" version="1.0" stroke-linecap="square" stroke-linejoin="miter" contentStyleType="text/css" font-style="normal" height="230" stroke-width="1" stroke-dashoffset="0" font-weight="normal" stroke-opacity="1">
    <!--Generated by the Batik Graphics2D SVG Generator-->
    <defs id="genericDefs"/>
    <g>
        <defs id="defs1">
            <linearGradient x1="10" x2="10" y1="10" gradientUnits="userSpaceOnUse" y2="116" xlink:type="simple" xlink:actuate="onLoad" id="linearGradient1" xlink:show="other" spreadMethod="pad">
                <stop stop-opacity="1" stop-color="white" offset="0%"/>
                <stop stop-opacity="1" stop-color="rgb(195,209,213)" offset="100%"/>
            </linearGradient>
            <linearGradient x1="10" x2="10" y1="170" gradientUnits="userSpaceOnUse" y2="220" xlink:type="simple" xlink:actuate="onLoad" id="linearGradient2" xlink:show="other" spreadMethod="pad">
                <stop stop-opacity="1" stop-color="white" offset="0%"/>
                <stop stop-opacity="1" stop-color="rgb(195,215,221)" offset="100%"/>
            </linearGradient>
            <linearGradient x1="170" x2="170" y1="10" gradientUnits="userSpaceOnUse" y2="116" xlink:type="simple" xlink:actuate="onLoad" id="linearGradient3" xlink:show="other" spreadMethod="pad">
                <stop stop-opacity="1" stop-color="white" offset="0%"/>
                <stop stop-opacity="1" stop-color="rgb(195,209,213)" offset="100%"/>
            </linearGradient>
            <linearGradient x1="180" x2="180" y1="170" gradientUnits="userSpaceOnUse" y2="220" xlink:type="simple" xlink:actuate="onLoad" id="linearGradient4" xlink:show="other" spreadMethod="pad">
                <stop stop-opacity="1" stop-color="white" offset="0%"/>
                <stop stop-opacity="1" stop-color="rgb(195,215,221)" offset="100%"/>
            </linearGradient>
            <clipPath clipPathUnits="userSpaceOnUse" id="clipPath1">
                <path d="M10 10 L10 115 L109 115 L109 10 Z"/>
            </clipPath>
            <clipPath clipPathUnits="userSpaceOnUse" id="clipPath2">
                <path d="M16 12 L106 12 L106 34 L16 34 L16 12 Z"/>
            </clipPath>
            <clipPath clipPathUnits="userSpaceOnUse" id="clipPath3">
                <path d="M31 33 L91 33 L91 55 L31 55 L31 33 Z"/>
            </clipPath>
            <clipPath clipPathUnits="userSpaceOnUse" id="clipPath4">
                <path d="M10 54 L111 54 L111 86 L10 86 L10 54 Z"/>
            </clipPath>
            <clipPath clipPathUnits="userSpaceOnUse" id="clipPath5">
                <path d="M10 85 L111 85 L111 117 L10 117 L10 85 Z"/>
            </clipPath>
            <clipPath clipPathUnits="userSpaceOnUse" id="clipPath6">
                <path d="M9 9 L111 9 L111 117 L9 117 L9 9 Z"/>
            </clipPath>
            <clipPath clipPathUnits="userSpaceOnUse" id="clipPath7">
                <path d="M10 170 L10 219 L109 219 L109 170 Z"/>
            </clipPath>
            <clipPath clipPathUnits="userSpaceOnUse" id="clipPath8">
                <path d="M19 174 L102 174 L102 196 L19 196 L19 174 Z"/>
            </clipPath>
            <clipPath clipPathUnits="userSpaceOnUse" id="clipPath9">
                <path d="M46 195 L75 195 L75 217 L46 217 L46 195 Z"/>
            </clipPath>
            <clipPath clipPathUnits="userSpaceOnUse" id="clipPath10">
                <path d="M9 169 L111 169 L111 221 L9 221 L9 169 Z"/>
            </clipPath>
            <clipPath clipPathUnits="userSpaceOnUse" id="clipPath11">
                <path d="M170 10 L170 115 L299 115 L299 10 Z"/>
            </clipPath>
            <clipPath clipPathUnits="userSpaceOnUse" id="clipPath12">
                <path d="M191 12 L281 12 L281 34 L191 34 L191 12 Z"/>
            </clipPath>
            <clipPath clipPathUnits="userSpaceOnUse" id="clipPath13">
                <path d="M175 33 L295 33 L295 55 L175 55 L175 33 Z"/>
            </clipPath>
            <clipPath clipPathUnits="userSpaceOnUse" id="clipPath14">
                <path d="M170 54 L301 54 L301 86 L170 86 L170 54 Z"/>
            </clipPath>
            <clipPath clipPathUnits="userSpaceOnUse" id="clipPath15">
                <path d="M170 85 L301 85 L301 117 L170 117 L170 85 Z"/>
            </clipPath>
            <clipPath clipPathUnits="userSpaceOnUse" id="clipPath16">
                <path d="M169 9 L301 9 L301 117 L169 117 L169 9 Z"/>
            </clipPath>
            <clipPath clipPathUnits="userSpaceOnUse" id="clipPath17">
                <path d="M180 170 L180 219 L279 219 L279 170 Z"/>
            </clipPath>
            <clipPath clipPathUnits="userSpaceOnUse" id="clipPath18">
                <path d="M189 174 L272 174 L272 196 L189 196 L189 174 Z"/>
            </clipPath>
            <clipPath clipPathUnits="userSpaceOnUse" id="clipPath19">
                <path d="M201 195 L261 195 L261 217 L201 217 L201 195 Z"/>
            </clipPath>
            <clipPath clipPathUnits="userSpaceOnUse" id="clipPath20">
                <path d="M179 169 L281 169 L281 221 L179 221 L179 169 Z"/>
            </clipPath>
            <clipPath clipPathUnits="userSpaceOnUse" id="clipPath21">
                <path d="M-1 -1 L311 -1 L311 231 L-1 231 L-1 -1 Z"/>
            </clipPath>
            <clipPath clipPathUnits="userSpaceOnUse" id="clipPath22">
                <path d="M54 154 L67 154 L67 172 L54 172 L54 154 Z"/>
            </clipPath>
            <clipPath clipPathUnits="userSpaceOnUse" id="clipPath23">
                <path d="M221 153 L233 153 L233 172 L221 172 L221 153 Z"/>
            </clipPath>
        </defs>
        <g fill="url(#linearGradient1)" font-family="'Segoe UI'" stroke-linejoin="round" stroke="url(#linearGradient1)" stroke-width="0" stroke-miterlimit="0">
            <rect x="10" y="10" clip-path="url(#clipPath1)" width="100" height="106" stroke="none"/>
            <text x="17" y="26" clip-path="url(#clipPath2)" fill="black" stroke="none" xml:space="preserve">«Stereotype»</text>
            <text x="32" y="47" clip-path="url(#clipPath3)" fill="black" stroke="none" xml:space="preserve">FlowPort</text>
        </g>
        <g stroke-width="1.1" font-family="'Segoe UI'" stroke-linecap="butt">
            <line clip-path="url(#clipPath4)" fill="none" x1="10" x2="110" y1="55" y2="55"/>
            <line clip-path="url(#clipPath5)" fill="none" x1="10" x2="110" y1="86" y2="86"/>
            <rect x="10" y="10" clip-path="url(#clipPath6)" fill="none" width="99" rx="0" ry="0" height="105"/>
            <rect x="10" y="170" clip-path="url(#clipPath7)" fill="url(#linearGradient2)" width="100" height="50" stroke="none"/>
            <text xml:space="preserve" x="20" y="188" clip-path="url(#clipPath8)" stroke="none">«Metaclass»</text>
            <text xml:space="preserve" x="47" y="209" clip-path="url(#clipPath9)" stroke="none">Port</text>
            <rect x="10" y="170" clip-path="url(#clipPath10)" fill="none" width="99" rx="0" ry="0" height="49"/>
            <rect x="170" y="10" clip-path="url(#clipPath11)" fill="url(#linearGradient3)" width="130" height="106" stroke="none"/>
            <text xml:space="preserve" x="192" y="26" clip-path="url(#clipPath12)" stroke="none">«Stereotype»</text>
            <text xml:space="preserve" x="176" y="47" clip-path="url(#clipPath13)" stroke="none">FlowSpecification</text>
            <line clip-path="url(#clipPath14)" fill="none" x1="170" x2="300" y1="55" y2="55"/>
            <line clip-path="url(#clipPath15)" fill="none" x1="170" x2="300" y1="86" y2="86"/>
            <rect x="170" y="10" clip-path="url(#clipPath16)" fill="none" width="129" rx="0" ry="0" height="105"/>
            <rect x="180" y="170" clip-path="url(#clipPath17)" fill="url(#linearGradient4)" width="100" height="50" stroke="none"/>
            <text xml:space="preserve" x="190" y="188" clip-path="url(#clipPath18)" stroke="none">«Metaclass»</text>
            <text xml:space="preserve" x="202" y="209" clip-path="url(#clipPath19)" stroke="none">Interface</text>
            <rect x="180" y="170" clip-path="url(#clipPath20)" fill="none" width="99" rx="0" ry="0" height="49"/>
            <line clip-path="url(#clipPath21)" fill="none" text-rendering="optimizeLegibility" x1="60" x2="60" y1="116" y2="170"/>
            <polygon text-rendering="optimizeLegibility" clip-path="url(#clipPath22)" points=" 60 170 55 155 65 155" stroke="none"/>
            <polygon text-rendering="optimizeLegibility" fill="none" clip-path="url(#clipPath22)" points=" 60 170 55 155 65 155"/>
            <line clip-path="url(#clipPath21)" fill="none" text-rendering="optimizeLegibility" x1="217" x2="230" y1="116" y2="170"/>
            <polygon text-rendering="optimizeLegibility" clip-path="url(#clipPath23)" points=" 230 170 222 157 231 154" stroke="none"/>
            <polygon text-rendering="optimizeLegibility" fill="none" clip-path="url(#clipPath23)" points=" 230 170 222 157 231 154"/>
        </g>
    </g>
    <rect x="10" y="10" fill-opacity="0" width="100" title="&#10;            A FlowPort is an interaction point through which input and/or output of items such as data, material, or energy may flow. This enables the owning block to declare which items it may exchange with its environment and the interaction points through which the exchange is made. We distinguish between atomic flow port and a nonatomic flow port. Atomic flow ports relay items that are classified by a single Block, ValueType, DataType, or Signal classifier. A nonatomic flow port relays items of several types as specified by a FlowSpecification. Flow ports and associated flow specifications define “what can flow” between the block and its environment, whereas item flows specify “what does flow” in a specific usage context. Flow ports relay items to their owning block or to a connector that connects them with their owner’s internal parts (internal connector).&#10;          " id="FlowPort" height="106" stroke-opacity="0">
        <title>
            A FlowPort is an interaction point through which input and/or output of items such as data, material, or energy may flow. This enables the owning block to declare which items it may exchange with its environment and the interaction points through which the exchange is made. We distinguish between atomic flow port and a nonatomic flow port. Atomic flow ports relay items that are classified by a single Block, ValueType, DataType, or Signal classifier. A nonatomic flow port relays items of several types as specified by a FlowSpecification. Flow ports and associated flow specifications define “what can flow” between the block and its environment, whereas item flows specify “what does flow” in a specific usage context. Flow ports relay items to their owning block or to a connector that connects them with their owner’s internal parts (internal connector).
          </title>
    </rect>
    <rect x="10" y="170" fill-opacity="0" width="100" title="A Port is a property of an EncapsulatedClassifier that specifies a distinct interaction point between that EncapsulatedClassifier and its environment or between the (behavior of the) EncapsulatedClassifier and its internal parts. Ports are connected to Properties of the EncapsulatedClassifier by Connectors through which requests can be made to invoke BehavioralFeatures. A Port may specify the services an EncapsulatedClassifier provides (offers) to its environment as well as the services that an EncapsulatedClassifier expects (requires) of its environment.  A Port may have an associated ProtocolStateMachine." id="Port" height="50" stroke-opacity="0">
        <title>A Port is a property of an EncapsulatedClassifier that specifies a distinct interaction point between that EncapsulatedClassifier and its environment or between the (behavior of the) EncapsulatedClassifier and its internal parts. Ports are connected to Properties of the EncapsulatedClassifier by Connectors through which requests can be made to invoke BehavioralFeatures. A Port may specify the services an EncapsulatedClassifier provides (offers) to its environment as well as the services that an EncapsulatedClassifier expects (requires) of its environment.  A Port may have an associated ProtocolStateMachine.</title>
    </rect>
    <rect x="170" y="10" fill-opacity="0" width="130" title="A FlowSpecification specifies inputs and outputs as a set of flow properties. A flow specification is used by flow ports to specify what items can flow via the port." id="FlowSpecification" height="106" stroke-opacity="0">
        <title>A FlowSpecification specifies inputs and outputs as a set of flow properties. A flow specification is used by flow ports to specify what items can flow via the port.</title>
    </rect>
    <rect x="180" y="170" fill-opacity="0" width="100" title="Interfaces declare coherent services that are implemented by BehavioredClassifiers that implement the Interfaces via InterfaceRealizations." id="Interface" height="50" stroke-opacity="0">
        <title>Interfaces declare coherent services that are implemented by BehavioredClassifiers that implement the Interfaces via InterfaceRealizations.</title>
    </rect>
</svg>
