<?xml version="1.0" encoding="UTF-8"?><svg xmlns="http://www.w3.org/2000/svg" xmlns:xlink="http://www.w3.org/1999/xlink" stroke-dasharray="none" shape-rendering="auto" font-family="'Dialog'" width="1240" text-rendering="auto" fill-opacity="1" contentScriptType="text/ecmascript" color-interpolation="auto" color-rendering="auto" preserveAspectRatio="xMidYMid meet" font-size="12" viewBox="0 0 1240 230" fill="black" stroke="black" image-rendering="auto" stroke-miterlimit="10" zoomAndPan="magnify" version="1.0" stroke-linecap="square" stroke-linejoin="miter" contentStyleType="text/css" font-style="normal" height="230" stroke-width="1" stroke-dashoffset="0" font-weight="normal" stroke-opacity="1">
    <!--Generated by the Batik Graphics2D SVG Generator-->
    <defs id="genericDefs"/>
    <g>
        <defs id="defs1">
            <linearGradient x1="10" x2="10" y1="10" gradientUnits="userSpaceOnUse" y2="116" xlink:type="simple" xlink:actuate="onLoad" id="linearGradient1" xlink:show="other" spreadMethod="pad">
                <stop stop-opacity="1" stop-color="white" offset="0%"/>
                <stop stop-opacity="1" stop-color="rgb(195,209,213)" offset="100%"/>
            </linearGradient>
            <linearGradient x1="10" x2="10" y1="170" gradientUnits="userSpaceOnUse" y2="220" xlink:type="simple" xlink:actuate="onLoad" id="linearGradient2" xlink:show="other" spreadMethod="pad">
                <stop stop-opacity="1" stop-color="white" offset="0%"/>
                <stop stop-opacity="1" stop-color="rgb(195,215,221)" offset="100%"/>
            </linearGradient>
            <linearGradient x1="170" x2="170" y1="10" gradientUnits="userSpaceOnUse" y2="116" xlink:type="simple" xlink:actuate="onLoad" id="linearGradient3" xlink:show="other" spreadMethod="pad">
                <stop stop-opacity="1" stop-color="white" offset="0%"/>
                <stop stop-opacity="1" stop-color="rgb(195,209,213)" offset="100%"/>
            </linearGradient>
            <linearGradient x1="170" x2="170" y1="170" gradientUnits="userSpaceOnUse" y2="220" xlink:type="simple" xlink:actuate="onLoad" id="linearGradient4" xlink:show="other" spreadMethod="pad">
                <stop stop-opacity="1" stop-color="white" offset="0%"/>
                <stop stop-opacity="1" stop-color="rgb(195,215,221)" offset="100%"/>
            </linearGradient>
            <linearGradient x1="330" x2="330" y1="10" gradientUnits="userSpaceOnUse" y2="116" xlink:type="simple" xlink:actuate="onLoad" id="linearGradient5" xlink:show="other" spreadMethod="pad">
                <stop stop-opacity="1" stop-color="white" offset="0%"/>
                <stop stop-opacity="1" stop-color="rgb(195,209,213)" offset="100%"/>
            </linearGradient>
            <linearGradient x1="330" x2="330" y1="170" gradientUnits="userSpaceOnUse" y2="220" xlink:type="simple" xlink:actuate="onLoad" id="linearGradient6" xlink:show="other" spreadMethod="pad">
                <stop stop-opacity="1" stop-color="white" offset="0%"/>
                <stop stop-opacity="1" stop-color="rgb(195,215,221)" offset="100%"/>
            </linearGradient>
            <linearGradient x1="490" x2="490" y1="10" gradientUnits="userSpaceOnUse" y2="116" xlink:type="simple" xlink:actuate="onLoad" id="linearGradient7" xlink:show="other" spreadMethod="pad">
                <stop stop-opacity="1" stop-color="white" offset="0%"/>
                <stop stop-opacity="1" stop-color="rgb(195,209,213)" offset="100%"/>
            </linearGradient>
            <linearGradient x1="490" x2="490" y1="170" gradientUnits="userSpaceOnUse" y2="220" xlink:type="simple" xlink:actuate="onLoad" id="linearGradient8" xlink:show="other" spreadMethod="pad">
                <stop stop-opacity="1" stop-color="white" offset="0%"/>
                <stop stop-opacity="1" stop-color="rgb(195,215,221)" offset="100%"/>
            </linearGradient>
            <linearGradient x1="650" x2="650" y1="10" gradientUnits="userSpaceOnUse" y2="116" xlink:type="simple" xlink:actuate="onLoad" id="linearGradient9" xlink:show="other" spreadMethod="pad">
                <stop stop-opacity="1" stop-color="white" offset="0%"/>
                <stop stop-opacity="1" stop-color="rgb(195,209,213)" offset="100%"/>
            </linearGradient>
            <linearGradient x1="650" x2="650" y1="170" gradientUnits="userSpaceOnUse" y2="220" xlink:type="simple" xlink:actuate="onLoad" id="linearGradient10" xlink:show="other" spreadMethod="pad">
                <stop stop-opacity="1" stop-color="white" offset="0%"/>
                <stop stop-opacity="1" stop-color="rgb(195,215,221)" offset="100%"/>
            </linearGradient>
            <linearGradient x1="810" x2="810" y1="10" gradientUnits="userSpaceOnUse" y2="116" xlink:type="simple" xlink:actuate="onLoad" id="linearGradient11" xlink:show="other" spreadMethod="pad">
                <stop stop-opacity="1" stop-color="white" offset="0%"/>
                <stop stop-opacity="1" stop-color="rgb(195,209,213)" offset="100%"/>
            </linearGradient>
            <linearGradient x1="810" x2="810" y1="170" gradientUnits="userSpaceOnUse" y2="220" xlink:type="simple" xlink:actuate="onLoad" id="linearGradient12" xlink:show="other" spreadMethod="pad">
                <stop stop-opacity="1" stop-color="white" offset="0%"/>
                <stop stop-opacity="1" stop-color="rgb(195,215,221)" offset="100%"/>
            </linearGradient>
            <linearGradient x1="970" x2="970" y1="10" gradientUnits="userSpaceOnUse" y2="116" xlink:type="simple" xlink:actuate="onLoad" id="linearGradient13" xlink:show="other" spreadMethod="pad">
                <stop stop-opacity="1" stop-color="white" offset="0%"/>
                <stop stop-opacity="1" stop-color="rgb(195,209,213)" offset="100%"/>
            </linearGradient>
            <linearGradient x1="970" x2="970" y1="170" gradientUnits="userSpaceOnUse" y2="220" xlink:type="simple" xlink:actuate="onLoad" id="linearGradient14" xlink:show="other" spreadMethod="pad">
                <stop stop-opacity="1" stop-color="white" offset="0%"/>
                <stop stop-opacity="1" stop-color="rgb(195,215,221)" offset="100%"/>
            </linearGradient>
            <linearGradient x1="1130" x2="1130" y1="10" gradientUnits="userSpaceOnUse" y2="116" xlink:type="simple" xlink:actuate="onLoad" id="linearGradient15" xlink:show="other" spreadMethod="pad">
                <stop stop-opacity="1" stop-color="white" offset="0%"/>
                <stop stop-opacity="1" stop-color="rgb(195,209,213)" offset="100%"/>
            </linearGradient>
            <linearGradient x1="1130" x2="1130" y1="170" gradientUnits="userSpaceOnUse" y2="220" xlink:type="simple" xlink:actuate="onLoad" id="linearGradient16" xlink:show="other" spreadMethod="pad">
                <stop stop-opacity="1" stop-color="white" offset="0%"/>
                <stop stop-opacity="1" stop-color="rgb(195,215,221)" offset="100%"/>
            </linearGradient>
            <clipPath clipPathUnits="userSpaceOnUse" id="clipPath1">
                <path d="M10 10 L10 115 L109 115 L109 10 Z"/>
            </clipPath>
            <clipPath clipPathUnits="userSpaceOnUse" id="clipPath2">
                <path d="M16 12 L106 12 L106 34 L16 34 L16 12 Z"/>
            </clipPath>
            <clipPath clipPathUnits="userSpaceOnUse" id="clipPath3">
                <path d="M31 33 L91 33 L91 55 L31 55 L31 33 Z"/>
            </clipPath>
            <clipPath clipPathUnits="userSpaceOnUse" id="clipPath4">
                <path d="M10 54 L111 54 L111 86 L10 86 L10 54 Z"/>
            </clipPath>
            <clipPath clipPathUnits="userSpaceOnUse" id="clipPath5">
                <path d="M10 85 L111 85 L111 117 L10 117 L10 85 Z"/>
            </clipPath>
            <clipPath clipPathUnits="userSpaceOnUse" id="clipPath6">
                <path d="M9 9 L111 9 L111 117 L9 117 L9 9 Z"/>
            </clipPath>
            <clipPath clipPathUnits="userSpaceOnUse" id="clipPath7">
                <path d="M10 170 L10 219 L118 219 L118 170 Z"/>
            </clipPath>
            <clipPath clipPathUnits="userSpaceOnUse" id="clipPath8">
                <path d="M24 174 L107 174 L107 196 L24 196 L24 174 Z"/>
            </clipPath>
            <clipPath clipPathUnits="userSpaceOnUse" id="clipPath9">
                <path d="M16 195 L115 195 L115 217 L16 217 L16 195 Z"/>
            </clipPath>
            <clipPath clipPathUnits="userSpaceOnUse" id="clipPath10">
                <path d="M9 169 L120 169 L120 221 L9 221 L9 169 Z"/>
            </clipPath>
            <clipPath clipPathUnits="userSpaceOnUse" id="clipPath11">
                <path d="M170 10 L170 115 L276 115 L276 10 Z"/>
            </clipPath>
            <clipPath clipPathUnits="userSpaceOnUse" id="clipPath12">
                <path d="M179 12 L269 12 L269 34 L179 34 L179 12 Z"/>
            </clipPath>
            <clipPath clipPathUnits="userSpaceOnUse" id="clipPath13">
                <path d="M176 33 L273 33 L273 55 L176 55 L176 33 Z"/>
            </clipPath>
            <clipPath clipPathUnits="userSpaceOnUse" id="clipPath14">
                <path d="M170 54 L278 54 L278 86 L170 86 L170 54 Z"/>
            </clipPath>
            <clipPath clipPathUnits="userSpaceOnUse" id="clipPath15">
                <path d="M170 85 L278 85 L278 117 L170 117 L170 85 Z"/>
            </clipPath>
            <clipPath clipPathUnits="userSpaceOnUse" id="clipPath16">
                <path d="M169 9 L278 9 L278 117 L169 117 L169 9 Z"/>
            </clipPath>
            <clipPath clipPathUnits="userSpaceOnUse" id="clipPath17">
                <path d="M170 170 L170 219 L269 219 L269 170 Z"/>
            </clipPath>
            <clipPath clipPathUnits="userSpaceOnUse" id="clipPath18">
                <path d="M179 174 L262 174 L262 196 L179 196 L179 174 Z"/>
            </clipPath>
            <clipPath clipPathUnits="userSpaceOnUse" id="clipPath19">
                <path d="M187 195 L255 195 L255 217 L187 217 L187 195 Z"/>
            </clipPath>
            <clipPath clipPathUnits="userSpaceOnUse" id="clipPath20">
                <path d="M169 169 L271 169 L271 221 L169 221 L169 169 Z"/>
            </clipPath>
            <clipPath clipPathUnits="userSpaceOnUse" id="clipPath21">
                <path d="M330 10 L330 115 L429 115 L429 10 Z"/>
            </clipPath>
            <clipPath clipPathUnits="userSpaceOnUse" id="clipPath22">
                <path d="M336 12 L426 12 L426 34 L336 34 L336 12 Z"/>
            </clipPath>
            <clipPath clipPathUnits="userSpaceOnUse" id="clipPath23">
                <path d="M356 33 L405 33 L405 55 L356 55 L356 33 Z"/>
            </clipPath>
            <clipPath clipPathUnits="userSpaceOnUse" id="clipPath24">
                <path d="M330 54 L431 54 L431 86 L330 86 L330 54 Z"/>
            </clipPath>
            <clipPath clipPathUnits="userSpaceOnUse" id="clipPath25">
                <path d="M330 85 L431 85 L431 117 L330 117 L330 85 Z"/>
            </clipPath>
            <clipPath clipPathUnits="userSpaceOnUse" id="clipPath26">
                <path d="M329 9 L431 9 L431 117 L329 117 L329 9 Z"/>
            </clipPath>
            <clipPath clipPathUnits="userSpaceOnUse" id="clipPath27">
                <path d="M330 170 L330 219 L429 219 L429 170 Z"/>
            </clipPath>
            <clipPath clipPathUnits="userSpaceOnUse" id="clipPath28">
                <path d="M339 174 L422 174 L422 196 L339 196 L339 174 Z"/>
            </clipPath>
            <clipPath clipPathUnits="userSpaceOnUse" id="clipPath29">
                <path d="M338 195 L424 195 L424 217 L338 217 L338 195 Z"/>
            </clipPath>
            <clipPath clipPathUnits="userSpaceOnUse" id="clipPath30">
                <path d="M329 169 L431 169 L431 221 L329 221 L329 169 Z"/>
            </clipPath>
            <clipPath clipPathUnits="userSpaceOnUse" id="clipPath31">
                <path d="M490 10 L490 115 L589 115 L589 10 Z"/>
            </clipPath>
            <clipPath clipPathUnits="userSpaceOnUse" id="clipPath32">
                <path d="M496 12 L586 12 L586 34 L496 34 L496 12 Z"/>
            </clipPath>
            <clipPath clipPathUnits="userSpaceOnUse" id="clipPath33">
                <path d="M512 33 L570 33 L570 55 L512 55 L512 33 Z"/>
            </clipPath>
            <clipPath clipPathUnits="userSpaceOnUse" id="clipPath34">
                <path d="M490 54 L591 54 L591 86 L490 86 L490 54 Z"/>
            </clipPath>
            <clipPath clipPathUnits="userSpaceOnUse" id="clipPath35">
                <path d="M490 85 L591 85 L591 117 L490 117 L490 85 Z"/>
            </clipPath>
            <clipPath clipPathUnits="userSpaceOnUse" id="clipPath36">
                <path d="M489 9 L591 9 L591 117 L489 117 L489 9 Z"/>
            </clipPath>
            <clipPath clipPathUnits="userSpaceOnUse" id="clipPath37">
                <path d="M490 170 L490 219 L589 219 L589 170 Z"/>
            </clipPath>
            <clipPath clipPathUnits="userSpaceOnUse" id="clipPath38">
                <path d="M499 174 L582 174 L582 196 L499 196 L499 174 Z"/>
            </clipPath>
            <clipPath clipPathUnits="userSpaceOnUse" id="clipPath39">
                <path d="M507 195 L575 195 L575 217 L507 217 L507 195 Z"/>
            </clipPath>
            <clipPath clipPathUnits="userSpaceOnUse" id="clipPath40">
                <path d="M489 169 L591 169 L591 221 L489 221 L489 169 Z"/>
            </clipPath>
            <clipPath clipPathUnits="userSpaceOnUse" id="clipPath41">
                <path d="M650 10 L650 115 L749 115 L749 10 Z"/>
            </clipPath>
            <clipPath clipPathUnits="userSpaceOnUse" id="clipPath42">
                <path d="M656 12 L746 12 L746 34 L656 34 L656 12 Z"/>
            </clipPath>
            <clipPath clipPathUnits="userSpaceOnUse" id="clipPath43">
                <path d="M668 33 L733 33 L733 55 L668 55 L668 33 Z"/>
            </clipPath>
            <clipPath clipPathUnits="userSpaceOnUse" id="clipPath44">
                <path d="M650 54 L751 54 L751 86 L650 86 L650 54 Z"/>
            </clipPath>
            <clipPath clipPathUnits="userSpaceOnUse" id="clipPath45">
                <path d="M650 85 L751 85 L751 117 L650 117 L650 85 Z"/>
            </clipPath>
            <clipPath clipPathUnits="userSpaceOnUse" id="clipPath46">
                <path d="M649 9 L751 9 L751 117 L649 117 L649 9 Z"/>
            </clipPath>
            <clipPath clipPathUnits="userSpaceOnUse" id="clipPath47">
                <path d="M650 170 L650 219 L749 219 L749 170 Z"/>
            </clipPath>
            <clipPath clipPathUnits="userSpaceOnUse" id="clipPath48">
                <path d="M659 174 L742 174 L742 196 L659 196 L659 174 Z"/>
            </clipPath>
            <clipPath clipPathUnits="userSpaceOnUse" id="clipPath49">
                <path d="M667 195 L735 195 L735 217 L667 217 L667 195 Z"/>
            </clipPath>
            <clipPath clipPathUnits="userSpaceOnUse" id="clipPath50">
                <path d="M649 169 L751 169 L751 221 L649 221 L649 169 Z"/>
            </clipPath>
            <clipPath clipPathUnits="userSpaceOnUse" id="clipPath51">
                <path d="M810 10 L810 115 L909 115 L909 10 Z"/>
            </clipPath>
            <clipPath clipPathUnits="userSpaceOnUse" id="clipPath52">
                <path d="M816 12 L906 12 L906 34 L816 34 L816 12 Z"/>
            </clipPath>
            <clipPath clipPathUnits="userSpaceOnUse" id="clipPath53">
                <path d="M820 33 L902 33 L902 55 L820 55 L820 33 Z"/>
            </clipPath>
            <clipPath clipPathUnits="userSpaceOnUse" id="clipPath54">
                <path d="M810 54 L911 54 L911 86 L810 86 L810 54 Z"/>
            </clipPath>
            <clipPath clipPathUnits="userSpaceOnUse" id="clipPath55">
                <path d="M810 85 L911 85 L911 117 L810 117 L810 85 Z"/>
            </clipPath>
            <clipPath clipPathUnits="userSpaceOnUse" id="clipPath56">
                <path d="M809 9 L911 9 L911 117 L809 117 L809 9 Z"/>
            </clipPath>
            <clipPath clipPathUnits="userSpaceOnUse" id="clipPath57">
                <path d="M810 170 L810 219 L909 219 L909 170 Z"/>
            </clipPath>
            <clipPath clipPathUnits="userSpaceOnUse" id="clipPath58">
                <path d="M819 174 L903 174 L903 196 L819 196 L819 174 Z"/>
            </clipPath>
            <clipPath clipPathUnits="userSpaceOnUse" id="clipPath59">
                <path d="M829 195 L892 195 L892 217 L829 217 L829 195 Z"/>
            </clipPath>
            <clipPath clipPathUnits="userSpaceOnUse" id="clipPath60">
                <path d="M809 169 L911 169 L911 221 L809 221 L809 169 Z"/>
            </clipPath>
            <clipPath clipPathUnits="userSpaceOnUse" id="clipPath61">
                <path d="M970 10 L970 115 L1069 115 L1069 10 Z"/>
            </clipPath>
            <clipPath clipPathUnits="userSpaceOnUse" id="clipPath62">
                <path d="M976 12 L1066 12 L1066 34 L976 34 L976 12 Z"/>
            </clipPath>
            <clipPath clipPathUnits="userSpaceOnUse" id="clipPath63">
                <path d="M1004 33 L1038 33 L1038 55 L1004 55 L1004 33 Z"/>
            </clipPath>
            <clipPath clipPathUnits="userSpaceOnUse" id="clipPath64">
                <path d="M970 54 L1071 54 L1071 86 L970 86 L970 54 Z"/>
            </clipPath>
            <clipPath clipPathUnits="userSpaceOnUse" id="clipPath65">
                <path d="M970 85 L1071 85 L1071 117 L970 117 L970 85 Z"/>
            </clipPath>
            <clipPath clipPathUnits="userSpaceOnUse" id="clipPath66">
                <path d="M969 9 L1071 9 L1071 117 L969 117 L969 9 Z"/>
            </clipPath>
            <clipPath clipPathUnits="userSpaceOnUse" id="clipPath67">
                <path d="M970 170 L970 219 L1069 219 L1069 170 Z"/>
            </clipPath>
            <clipPath clipPathUnits="userSpaceOnUse" id="clipPath68">
                <path d="M979 174 L1062 174 L1062 196 L979 196 L979 174 Z"/>
            </clipPath>
            <clipPath clipPathUnits="userSpaceOnUse" id="clipPath69">
                <path d="M1003 195 L1039 195 L1039 217 L1003 217 L1003 195 Z"/>
            </clipPath>
            <clipPath clipPathUnits="userSpaceOnUse" id="clipPath70">
                <path d="M969 169 L1071 169 L1071 221 L969 221 L969 169 Z"/>
            </clipPath>
            <clipPath clipPathUnits="userSpaceOnUse" id="clipPath71">
                <path d="M1130 10 L1130 115 L1229 115 L1229 10 Z"/>
            </clipPath>
            <clipPath clipPathUnits="userSpaceOnUse" id="clipPath72">
                <path d="M1136 12 L1226 12 L1226 34 L1136 34 L1136 12 Z"/>
            </clipPath>
            <clipPath clipPathUnits="userSpaceOnUse" id="clipPath73">
                <path d="M1146 33 L1216 33 L1216 55 L1146 55 L1146 33 Z"/>
            </clipPath>
            <clipPath clipPathUnits="userSpaceOnUse" id="clipPath74">
                <path d="M1130 54 L1231 54 L1231 86 L1130 86 L1130 54 Z"/>
            </clipPath>
            <clipPath clipPathUnits="userSpaceOnUse" id="clipPath75">
                <path d="M1130 85 L1231 85 L1231 117 L1130 117 L1130 85 Z"/>
            </clipPath>
            <clipPath clipPathUnits="userSpaceOnUse" id="clipPath76">
                <path d="M1129 9 L1231 9 L1231 117 L1129 117 L1129 9 Z"/>
            </clipPath>
            <clipPath clipPathUnits="userSpaceOnUse" id="clipPath77">
                <path d="M1130 170 L1130 219 L1229 219 L1229 170 Z"/>
            </clipPath>
            <clipPath clipPathUnits="userSpaceOnUse" id="clipPath78">
                <path d="M1139 174 L1222 174 L1222 196 L1139 196 L1139 174 Z"/>
            </clipPath>
            <clipPath clipPathUnits="userSpaceOnUse" id="clipPath79">
                <path d="M1163 195 L1199 195 L1199 217 L1163 217 L1163 195 Z"/>
            </clipPath>
            <clipPath clipPathUnits="userSpaceOnUse" id="clipPath80">
                <path d="M1129 169 L1231 169 L1231 221 L1129 221 L1129 169 Z"/>
            </clipPath>
            <clipPath clipPathUnits="userSpaceOnUse" id="clipPath81">
                <path d="M-1 -1 L1241 -1 L1241 231 L-1 231 L-1 -1 Z"/>
            </clipPath>
            <clipPath clipPathUnits="userSpaceOnUse" id="clipPath82">
                <path d="M57 154 L70 154 L70 172 L57 172 L57 154 Z"/>
            </clipPath>
            <clipPath clipPathUnits="userSpaceOnUse" id="clipPath83">
                <path d="M215 154 L228 154 L228 172 L215 172 L215 154 Z"/>
            </clipPath>
            <clipPath clipPathUnits="userSpaceOnUse" id="clipPath84">
                <path d="M374 154 L387 154 L387 172 L374 172 L374 154 Z"/>
            </clipPath>
            <clipPath clipPathUnits="userSpaceOnUse" id="clipPath85">
                <path d="M534 154 L547 154 L547 172 L534 172 L534 154 Z"/>
            </clipPath>
            <clipPath clipPathUnits="userSpaceOnUse" id="clipPath86">
                <path d="M694 154 L707 154 L707 172 L694 172 L694 154 Z"/>
            </clipPath>
            <clipPath clipPathUnits="userSpaceOnUse" id="clipPath87">
                <path d="M854 154 L867 154 L867 172 L854 172 L854 154 Z"/>
            </clipPath>
            <clipPath clipPathUnits="userSpaceOnUse" id="clipPath88">
                <path d="M1014 154 L1027 154 L1027 172 L1014 172 L1014 154 Z"/>
            </clipPath>
            <clipPath clipPathUnits="userSpaceOnUse" id="clipPath89">
                <path d="M1174 154 L1187 154 L1187 172 L1174 172 L1174 154 Z"/>
            </clipPath>
        </defs>
        <g fill="url(#linearGradient1)" font-family="'Segoe UI'" stroke-linejoin="round" stroke="url(#linearGradient1)" stroke-width="0" stroke-miterlimit="0">
            <rect x="10" y="10" clip-path="url(#clipPath1)" width="100" height="106" stroke="none"/>
            <text x="17" y="26" clip-path="url(#clipPath2)" fill="black" stroke="none" xml:space="preserve">«Stereotype»</text>
            <text x="32" y="47" clip-path="url(#clipPath3)" fill="black" stroke="none" xml:space="preserve">Conform</text>
        </g>
        <g stroke-width="1.1" font-family="'Segoe UI'" stroke-linecap="butt">
            <line clip-path="url(#clipPath4)" fill="none" x1="10" x2="110" y1="55" y2="55"/>
            <line clip-path="url(#clipPath5)" fill="none" x1="10" x2="110" y1="86" y2="86"/>
            <rect x="10" y="10" clip-path="url(#clipPath6)" fill="none" width="99" rx="0" ry="0" height="105"/>
            <rect x="10" y="170" clip-path="url(#clipPath7)" fill="url(#linearGradient2)" width="109" height="50" stroke="none"/>
            <text xml:space="preserve" x="25" y="188" clip-path="url(#clipPath8)" stroke="none">«Metaclass»</text>
            <text xml:space="preserve" x="17" y="209" clip-path="url(#clipPath9)" stroke="none">Generalization</text>
            <rect x="10" y="170" clip-path="url(#clipPath10)" fill="none" width="108" rx="0" ry="0" height="49"/>
            <rect x="170" y="10" clip-path="url(#clipPath11)" fill="url(#linearGradient3)" width="107" height="106" stroke="none"/>
            <text xml:space="preserve" x="180" y="26" clip-path="url(#clipPath12)" stroke="none">«Stereotype»</text>
            <text xml:space="preserve" x="177" y="47" clip-path="url(#clipPath13)" stroke="none">ElementGroup</text>
            <line clip-path="url(#clipPath14)" fill="none" x1="170" x2="277" y1="55" y2="55"/>
            <line clip-path="url(#clipPath15)" fill="none" x1="170" x2="277" y1="86" y2="86"/>
            <rect x="170" y="10" clip-path="url(#clipPath16)" fill="none" width="106" rx="0" ry="0" height="105"/>
            <rect x="170" y="170" clip-path="url(#clipPath17)" fill="url(#linearGradient4)" width="100" height="50" stroke="none"/>
            <text xml:space="preserve" x="180" y="188" clip-path="url(#clipPath18)" stroke="none">«Metaclass»</text>
            <text xml:space="preserve" x="188" y="209" clip-path="url(#clipPath19)" stroke="none">Comment</text>
            <rect x="170" y="170" clip-path="url(#clipPath20)" fill="none" width="99" rx="0" ry="0" height="49"/>
            <rect x="330" y="10" clip-path="url(#clipPath21)" fill="url(#linearGradient5)" width="100" height="106" stroke="none"/>
            <text xml:space="preserve" x="337" y="26" clip-path="url(#clipPath22)" stroke="none">«Stereotype»</text>
            <text xml:space="preserve" x="357" y="47" clip-path="url(#clipPath23)" stroke="none">Expose</text>
            <line clip-path="url(#clipPath24)" fill="none" x1="330" x2="430" y1="55" y2="55"/>
            <line clip-path="url(#clipPath25)" fill="none" x1="330" x2="430" y1="86" y2="86"/>
            <rect x="330" y="10" clip-path="url(#clipPath26)" fill="none" width="99" rx="0" ry="0" height="105"/>
            <rect x="330" y="170" clip-path="url(#clipPath27)" fill="url(#linearGradient6)" width="100" height="50" stroke="none"/>
            <text xml:space="preserve" x="340" y="188" clip-path="url(#clipPath28)" stroke="none">«Metaclass»</text>
            <text xml:space="preserve" x="339" y="209" clip-path="url(#clipPath29)" stroke="none">Dependency</text>
            <rect x="330" y="170" clip-path="url(#clipPath30)" fill="none" width="99" rx="0" ry="0" height="49"/>
            <rect x="490" y="10" clip-path="url(#clipPath31)" fill="url(#linearGradient7)" width="100" height="106" stroke="none"/>
            <text xml:space="preserve" x="497" y="26" clip-path="url(#clipPath32)" stroke="none">«Stereotype»</text>
            <text xml:space="preserve" x="513" y="47" clip-path="url(#clipPath33)" stroke="none">Problem</text>
            <line clip-path="url(#clipPath34)" fill="none" x1="490" x2="590" y1="55" y2="55"/>
            <line clip-path="url(#clipPath35)" fill="none" x1="490" x2="590" y1="86" y2="86"/>
            <rect x="490" y="10" clip-path="url(#clipPath36)" fill="none" width="99" rx="0" ry="0" height="105"/>
            <rect x="490" y="170" clip-path="url(#clipPath37)" fill="url(#linearGradient8)" width="100" height="50" stroke="none"/>
            <text xml:space="preserve" x="500" y="188" clip-path="url(#clipPath38)" stroke="none">«Metaclass»</text>
            <text xml:space="preserve" x="508" y="209" clip-path="url(#clipPath39)" stroke="none">Comment</text>
            <rect x="490" y="170" clip-path="url(#clipPath40)" fill="none" width="99" rx="0" ry="0" height="49"/>
            <rect x="650" y="10" clip-path="url(#clipPath41)" fill="url(#linearGradient9)" width="100" height="106" stroke="none"/>
            <text xml:space="preserve" x="657" y="26" clip-path="url(#clipPath42)" stroke="none">«Stereotype»</text>
            <text xml:space="preserve" x="669" y="47" clip-path="url(#clipPath43)" stroke="none">Rationale</text>
            <line clip-path="url(#clipPath44)" fill="none" x1="650" x2="750" y1="55" y2="55"/>
            <line clip-path="url(#clipPath45)" fill="none" x1="650" x2="750" y1="86" y2="86"/>
            <rect x="650" y="10" clip-path="url(#clipPath46)" fill="none" width="99" rx="0" ry="0" height="105"/>
            <rect x="650" y="170" clip-path="url(#clipPath47)" fill="url(#linearGradient10)" width="100" height="50" stroke="none"/>
            <text xml:space="preserve" x="660" y="188" clip-path="url(#clipPath48)" stroke="none">«Metaclass»</text>
            <text xml:space="preserve" x="668" y="209" clip-path="url(#clipPath49)" stroke="none">Comment</text>
            <rect x="650" y="170" clip-path="url(#clipPath50)" fill="none" width="99" rx="0" ry="0" height="49"/>
            <rect x="810" y="10" clip-path="url(#clipPath51)" fill="url(#linearGradient11)" width="100" height="106" stroke="none"/>
            <text xml:space="preserve" x="817" y="26" clip-path="url(#clipPath52)" stroke="none">«Stereotype»</text>
            <text xml:space="preserve" x="821" y="47" clip-path="url(#clipPath53)" stroke="none">Stakeholder</text>
            <line clip-path="url(#clipPath54)" fill="none" x1="810" x2="910" y1="55" y2="55"/>
            <line clip-path="url(#clipPath55)" fill="none" x1="810" x2="910" y1="86" y2="86"/>
            <rect x="810" y="10" clip-path="url(#clipPath56)" fill="none" width="99" rx="0" ry="0" height="105"/>
            <rect x="810" y="170" clip-path="url(#clipPath57)" fill="url(#linearGradient12)" width="100" height="50" stroke="none"/>
            <text x="820" y="188" clip-path="url(#clipPath58)" font-style="italic" stroke="none" xml:space="preserve">«Metaclass»</text>
            <text x="830" y="209" clip-path="url(#clipPath59)" font-style="italic" stroke="none" xml:space="preserve">Classifier</text>
            <rect x="810" y="170" clip-path="url(#clipPath60)" fill="none" width="99" rx="0" ry="0" height="49"/>
            <rect x="970" y="10" clip-path="url(#clipPath61)" fill="url(#linearGradient13)" width="100" height="106" stroke="none"/>
            <text xml:space="preserve" x="977" y="26" clip-path="url(#clipPath62)" stroke="none">«Stereotype»</text>
            <text xml:space="preserve" x="1005" y="47" clip-path="url(#clipPath63)" stroke="none">View</text>
            <line clip-path="url(#clipPath64)" fill="none" x1="970" x2="1070" y1="55" y2="55"/>
            <line clip-path="url(#clipPath65)" fill="none" x1="970" x2="1070" y1="86" y2="86"/>
            <rect x="970" y="10" clip-path="url(#clipPath66)" fill="none" width="99" rx="0" ry="0" height="105"/>
            <rect x="970" y="170" clip-path="url(#clipPath67)" fill="url(#linearGradient14)" width="100" height="50" stroke="none"/>
            <text xml:space="preserve" x="980" y="188" clip-path="url(#clipPath68)" stroke="none">«Metaclass»</text>
            <text xml:space="preserve" x="1004" y="209" clip-path="url(#clipPath69)" stroke="none">Class</text>
            <rect x="970" y="170" clip-path="url(#clipPath70)" fill="none" width="99" rx="0" ry="0" height="49"/>
            <rect x="1130" y="10" clip-path="url(#clipPath71)" fill="url(#linearGradient15)" width="100" height="106" stroke="none"/>
            <text xml:space="preserve" x="1137" y="26" clip-path="url(#clipPath72)" stroke="none">«Stereotype»</text>
            <text xml:space="preserve" x="1147" y="47" clip-path="url(#clipPath73)" stroke="none">Viewpoint</text>
            <line clip-path="url(#clipPath74)" fill="none" x1="1130" x2="1230" y1="55" y2="55"/>
            <line clip-path="url(#clipPath75)" fill="none" x1="1130" x2="1230" y1="86" y2="86"/>
            <rect x="1130" y="10" clip-path="url(#clipPath76)" fill="none" width="99" rx="0" ry="0" height="105"/>
            <rect x="1130" y="170" clip-path="url(#clipPath77)" fill="url(#linearGradient16)" width="100" height="50" stroke="none"/>
            <text xml:space="preserve" x="1140" y="188" clip-path="url(#clipPath78)" stroke="none">«Metaclass»</text>
            <text xml:space="preserve" x="1164" y="209" clip-path="url(#clipPath79)" stroke="none">Class</text>
            <rect x="1130" y="170" clip-path="url(#clipPath80)" fill="none" width="99" rx="0" ry="0" height="49"/>
            <line clip-path="url(#clipPath81)" fill="none" text-rendering="optimizeLegibility" x1="60" x2="64" y1="116" y2="170"/>
            <polygon text-rendering="optimizeLegibility" clip-path="url(#clipPath82)" points=" 64 170 58 155 68 155" stroke="none"/>
            <polygon text-rendering="optimizeLegibility" fill="none" clip-path="url(#clipPath82)" points=" 64 170 58 155 68 155"/>
            <line clip-path="url(#clipPath81)" fill="none" text-rendering="optimizeLegibility" x1="223" x2="220" y1="116" y2="170"/>
            <polygon text-rendering="optimizeLegibility" clip-path="url(#clipPath83)" points=" 220 170 216 155 226 155" stroke="none"/>
            <polygon text-rendering="optimizeLegibility" fill="none" clip-path="url(#clipPath83)" points=" 220 170 216 155 226 155"/>
            <line clip-path="url(#clipPath81)" fill="none" text-rendering="optimizeLegibility" x1="380" x2="380" y1="116" y2="170"/>
            <polygon text-rendering="optimizeLegibility" clip-path="url(#clipPath84)" points=" 380 170 375 155 385 155" stroke="none"/>
            <polygon text-rendering="optimizeLegibility" fill="none" clip-path="url(#clipPath84)" points=" 380 170 375 155 385 155"/>
            <line clip-path="url(#clipPath81)" fill="none" text-rendering="optimizeLegibility" x1="540" x2="540" y1="116" y2="170"/>
            <polygon text-rendering="optimizeLegibility" clip-path="url(#clipPath85)" points=" 540 170 535 155 545 155" stroke="none"/>
            <polygon text-rendering="optimizeLegibility" fill="none" clip-path="url(#clipPath85)" points=" 540 170 535 155 545 155"/>
            <line clip-path="url(#clipPath81)" fill="none" text-rendering="optimizeLegibility" x1="700" x2="700" y1="116" y2="170"/>
            <polygon text-rendering="optimizeLegibility" clip-path="url(#clipPath86)" points=" 700 170 695 155 705 155" stroke="none"/>
            <polygon text-rendering="optimizeLegibility" fill="none" clip-path="url(#clipPath86)" points=" 700 170 695 155 705 155"/>
            <line clip-path="url(#clipPath81)" fill="none" text-rendering="optimizeLegibility" x1="860" x2="860" y1="116" y2="170"/>
            <polygon text-rendering="optimizeLegibility" clip-path="url(#clipPath87)" points=" 860 170 855 155 865 155" stroke="none"/>
            <polygon text-rendering="optimizeLegibility" fill="none" clip-path="url(#clipPath87)" points=" 860 170 855 155 865 155"/>
            <line clip-path="url(#clipPath81)" fill="none" text-rendering="optimizeLegibility" x1="1020" x2="1020" y1="116" y2="170"/>
            <polygon text-rendering="optimizeLegibility" clip-path="url(#clipPath88)" points=" 1020 170 1015 155 1025 155" stroke="none"/>
            <polygon text-rendering="optimizeLegibility" fill="none" clip-path="url(#clipPath88)" points=" 1020 170 1015 155 1025 155"/>
            <line clip-path="url(#clipPath81)" fill="none" text-rendering="optimizeLegibility" x1="1180" x2="1180" y1="116" y2="170"/>
            <polygon text-rendering="optimizeLegibility" clip-path="url(#clipPath89)" points=" 1180 170 1175 155 1185 155" stroke="none"/>
            <polygon text-rendering="optimizeLegibility" fill="none" clip-path="url(#clipPath89)" points=" 1180 170 1175 155 1185 155"/>
        </g>
    </g>
    <rect x="10" y="10" fill-opacity="0" width="100" title="&#10;            A Conform relationship is a dependency between a view and a viewpoint. The view conforms to the specified rules and conventions detailed in the viewpoint. Conform is a specialization of the UML dependency, and as with other dependencies the arrow direction points from the (client/source) to the (supplier/target).&#10;          " id="Conform" height="106" stroke-opacity="0">
        <title>
            A Conform relationship is a dependency between a view and a viewpoint. The view conforms to the specified rules and conventions detailed in the viewpoint. Conform is a specialization of the UML dependency, and as with other dependencies the arrow direction points from the (client/source) to the (supplier/target).
          </title>
    </rect>
    <rect x="10" y="170" fill-opacity="0" width="109" title="A Generalization is a taxonomic relationship between a more general Classifier and a more specific Classifier. Each instance of the specific Classifier is also an instance of the general Classifier. The specific Classifier inherits the features of the more general Classifier. A Generalization is owned by the specific Classifier." id="Generalization" height="50" stroke-opacity="0">
        <title>A Generalization is a taxonomic relationship between a more general Classifier and a more specific Classifier. Each instance of the specific Classifier is also an instance of the general Classifier. The specific Classifier inherits the features of the more general Classifier. A Generalization is owned by the specific Classifier.</title>
    </rect>
    <rect x="170" y="10" fill-opacity="0" width="107" id="ElementGroup" height="106" stroke-opacity="0"/>
    <rect x="170" y="170" fill-opacity="0" width="100" title="A Comment is a textual annotation that can be attached to a set of Elements." id="Comment" height="50" stroke-opacity="0">
        <title>A Comment is a textual annotation that can be attached to a set of Elements.</title>
    </rect>
    <rect x="330" y="10" fill-opacity="0" width="100" id="Expose" height="106" stroke-opacity="0"/>
    <rect x="330" y="170" fill-opacity="0" width="100" title="A Dependency is a Relationship that signifies that a single model Element or a set of model Elements requires other model Elements for their specification or implementation. This means that the complete semantics of the client Element(s) are either semantically or structurally dependent on the definition of the supplier Element(s)." id="Dependency" height="50" stroke-opacity="0">
        <title>A Dependency is a Relationship that signifies that a single model Element or a set of model Elements requires other model Elements for their specification or implementation. This means that the complete semantics of the client Element(s) are either semantically or structurally dependent on the definition of the supplier Element(s).</title>
    </rect>
    <rect x="490" y="10" fill-opacity="0" width="100" title="&#10;            A Problem documents a deficiency, limitation, or failure of one or more model elements to satisfy a requirement or need, or other undesired outcome. It may be used to capture problems identified during analysis, design, verification, or manufacture and associate the problem with the relevant model elements. Problem is a stereotype of comment and may be attached to any other model element in the same manner as a comment.&#10;          " id="Problem" height="106" stroke-opacity="0">
        <title>
            A Problem documents a deficiency, limitation, or failure of one or more model elements to satisfy a requirement or need, or other undesired outcome. It may be used to capture problems identified during analysis, design, verification, or manufacture and associate the problem with the relevant model elements. Problem is a stereotype of comment and may be attached to any other model element in the same manner as a comment.
          </title>
    </rect>
    <rect x="490" y="170" fill-opacity="0" width="100" title="A Comment is a textual annotation that can be attached to a set of Elements." id="Comment" height="50" stroke-opacity="0">
        <title>A Comment is a textual annotation that can be attached to a set of Elements.</title>
    </rect>
    <rect x="650" y="10" fill-opacity="0" width="100" title="&#10;            A Rationale documents the justification for decisions and the requirements, design, and other decisions. A Rationale can be attached to any model element including relationships. It allows the user, for example, to specify a rationale that may reference more detailed documentation such as a trade study or analysis report. Rationale is a stereotype of comment and may be attached to any other model element in the same manner as a comment.&#10;          " id="Rationale" height="106" stroke-opacity="0">
        <title>
            A Rationale documents the justification for decisions and the requirements, design, and other decisions. A Rationale can be attached to any model element including relationships. It allows the user, for example, to specify a rationale that may reference more detailed documentation such as a trade study or analysis report. Rationale is a stereotype of comment and may be attached to any other model element in the same manner as a comment.
          </title>
    </rect>
    <rect x="650" y="170" fill-opacity="0" width="100" title="A Comment is a textual annotation that can be attached to a set of Elements." id="Comment" height="50" stroke-opacity="0">
        <title>A Comment is a textual annotation that can be attached to a set of Elements.</title>
    </rect>
    <rect x="810" y="10" fill-opacity="0" width="100" id="Stakeholder" height="106" stroke-opacity="0"/>
    <rect x="810" y="170" fill-opacity="0" width="100" title="A Classifier represents a classification of instances according to their Features." id="Classifier" height="50" stroke-opacity="0">
        <title>A Classifier represents a classification of instances according to their Features.</title>
    </rect>
    <rect x="970" y="10" fill-opacity="0" width="100" title="A View is a representation of a whole system or subsystem from the perspective of a single viewpoint. Views are allowed to import other elements including other packages and other views that conform to the viewpoint." id="View" height="106" stroke-opacity="0">
        <title>A View is a representation of a whole system or subsystem from the perspective of a single viewpoint. Views are allowed to import other elements including other packages and other views that conform to the viewpoint.</title>
    </rect>
    <rect x="970" y="170" fill-opacity="0" width="100" title="A Class classifies a set of objects and specifies the features that characterize the structure and behavior of those objects.  A Class may have an internal structure and Ports." id="Class" height="50" stroke-opacity="0">
        <title>A Class classifies a set of objects and specifies the features that characterize the structure and behavior of those objects.  A Class may have an internal structure and Ports.</title>
    </rect>
    <rect x="1130" y="10" fill-opacity="0" width="100" title="&#10;            A Viewpoint is a specification of the conventions and rules for constructing and using a view for the purpose of addressing a set of stakeholder concerns. The languages and methods for specifying a view may reference languages and methods in another viewpoint. They specify the elements expected to be represented in the view, and may be formally or informally defined. For example, the security viewpoint may require the security requirements, security functional and physical architecture, and security test cases.&#10;          " id="Viewpoint" height="106" stroke-opacity="0">
        <title>
            A Viewpoint is a specification of the conventions and rules for constructing and using a view for the purpose of addressing a set of stakeholder concerns. The languages and methods for specifying a view may reference languages and methods in another viewpoint. They specify the elements expected to be represented in the view, and may be formally or informally defined. For example, the security viewpoint may require the security requirements, security functional and physical architecture, and security test cases.
          </title>
    </rect>
    <rect x="1130" y="170" fill-opacity="0" width="100" title="A Class classifies a set of objects and specifies the features that characterize the structure and behavior of those objects.  A Class may have an internal structure and Ports." id="Class" height="50" stroke-opacity="0">
        <title>A Class classifies a set of objects and specifies the features that characterize the structure and behavior of those objects.  A Class may have an internal structure and Ports.</title>
    </rect>
</svg>
