<?xml version="1.0" encoding="UTF-8"?><svg xmlns="http://www.w3.org/2000/svg" xmlns:xlink="http://www.w3.org/1999/xlink" stroke-dasharray="none" shape-rendering="auto" font-family="'Dialog'" width="352" text-rendering="auto" fill-opacity="1" contentScriptType="text/ecmascript" color-interpolation="auto" color-rendering="auto" preserveAspectRatio="xMidYMid meet" font-size="12" viewBox="0 0 352 230" fill="black" stroke="black" image-rendering="auto" stroke-miterlimit="10" zoomAndPan="magnify" version="1.0" stroke-linecap="square" stroke-linejoin="miter" contentStyleType="text/css" font-style="normal" height="230" stroke-width="1" stroke-dashoffset="0" font-weight="normal" stroke-opacity="1">
    <!--Generated by the Batik Graphics2D SVG Generator-->
    <defs id="genericDefs"/>
    <g>
        <defs id="defs1">
            <linearGradient x1="10" x2="10" y1="10" gradientUnits="userSpaceOnUse" y2="116" xlink:type="simple" xlink:actuate="onLoad" id="linearGradient1" xlink:show="other" spreadMethod="pad">
                <stop stop-opacity="1" stop-color="white" offset="0%"/>
                <stop stop-opacity="1" stop-color="rgb(195,209,213)" offset="100%"/>
            </linearGradient>
            <linearGradient x1="170" x2="170" y1="10" gradientUnits="userSpaceOnUse" y2="116" xlink:type="simple" xlink:actuate="onLoad" id="linearGradient2" xlink:show="other" spreadMethod="pad">
                <stop stop-opacity="1" stop-color="white" offset="0%"/>
                <stop stop-opacity="1" stop-color="rgb(195,209,213)" offset="100%"/>
            </linearGradient>
            <linearGradient x1="197" x2="197" y1="170" gradientUnits="userSpaceOnUse" y2="220" xlink:type="simple" xlink:actuate="onLoad" id="linearGradient3" xlink:show="other" spreadMethod="pad">
                <stop stop-opacity="1" stop-color="white" offset="0%"/>
                <stop stop-opacity="1" stop-color="rgb(195,215,221)" offset="100%"/>
            </linearGradient>
            <linearGradient x1="10" x2="10" y1="170" gradientUnits="userSpaceOnUse" y2="220" xlink:type="simple" xlink:actuate="onLoad" id="linearGradient4" xlink:show="other" spreadMethod="pad">
                <stop stop-opacity="1" stop-color="white" offset="0%"/>
                <stop stop-opacity="1" stop-color="rgb(195,215,221)" offset="100%"/>
            </linearGradient>
            <clipPath clipPathUnits="userSpaceOnUse" id="clipPath1">
                <path d="M10 10 L10 115 L109 115 L109 10 Z"/>
            </clipPath>
            <clipPath clipPathUnits="userSpaceOnUse" id="clipPath2">
                <path d="M16 12 L106 12 L106 34 L16 34 L16 12 Z"/>
            </clipPath>
            <clipPath clipPathUnits="userSpaceOnUse" id="clipPath3">
                <path d="M32 33 L89 33 L89 55 L32 55 L32 33 Z"/>
            </clipPath>
            <clipPath clipPathUnits="userSpaceOnUse" id="clipPath4">
                <path d="M10 54 L111 54 L111 86 L10 86 L10 54 Z"/>
            </clipPath>
            <clipPath clipPathUnits="userSpaceOnUse" id="clipPath5">
                <path d="M10 85 L111 85 L111 117 L10 117 L10 85 Z"/>
            </clipPath>
            <clipPath clipPathUnits="userSpaceOnUse" id="clipPath6">
                <path d="M9 9 L111 9 L111 117 L9 117 L9 9 Z"/>
            </clipPath>
            <clipPath clipPathUnits="userSpaceOnUse" id="clipPath7">
                <path d="M170 10 L170 115 L341 115 L341 10 Z"/>
            </clipPath>
            <clipPath clipPathUnits="userSpaceOnUse" id="clipPath8">
                <path d="M212 12 L302 12 L302 34 L212 34 L212 12 Z"/>
            </clipPath>
            <clipPath clipPathUnits="userSpaceOnUse" id="clipPath9">
                <path d="M175 33 L337 33 L337 55 L175 55 L175 33 Z"/>
            </clipPath>
            <clipPath clipPathUnits="userSpaceOnUse" id="clipPath10">
                <path d="M170 54 L343 54 L343 86 L170 86 L170 54 Z"/>
            </clipPath>
            <clipPath clipPathUnits="userSpaceOnUse" id="clipPath11">
                <path d="M170 85 L343 85 L343 117 L170 117 L170 85 Z"/>
            </clipPath>
            <clipPath clipPathUnits="userSpaceOnUse" id="clipPath12">
                <path d="M169 9 L343 9 L343 117 L169 117 L169 9 Z"/>
            </clipPath>
            <clipPath clipPathUnits="userSpaceOnUse" id="clipPath13">
                <path d="M197 170 L197 219 L313 219 L313 170 Z"/>
            </clipPath>
            <clipPath clipPathUnits="userSpaceOnUse" id="clipPath14">
                <path d="M215 174 L298 174 L298 196 L215 196 L215 174 Z"/>
            </clipPath>
            <clipPath clipPathUnits="userSpaceOnUse" id="clipPath15">
                <path d="M203 195 L310 195 L310 217 L203 217 L203 195 Z"/>
            </clipPath>
            <clipPath clipPathUnits="userSpaceOnUse" id="clipPath16">
                <path d="M196 169 L315 169 L315 221 L196 221 L196 169 Z"/>
            </clipPath>
            <clipPath clipPathUnits="userSpaceOnUse" id="clipPath17">
                <path d="M10 170 L10 219 L109 219 L109 170 Z"/>
            </clipPath>
            <clipPath clipPathUnits="userSpaceOnUse" id="clipPath18">
                <path d="M19 174 L102 174 L102 196 L19 196 L19 174 Z"/>
            </clipPath>
            <clipPath clipPathUnits="userSpaceOnUse" id="clipPath19">
                <path d="M21 195 L100 195 L100 217 L21 217 L21 195 Z"/>
            </clipPath>
            <clipPath clipPathUnits="userSpaceOnUse" id="clipPath20">
                <path d="M9 169 L111 169 L111 221 L9 221 L9 169 Z"/>
            </clipPath>
            <clipPath clipPathUnits="userSpaceOnUse" id="clipPath21">
                <path d="M-1 -1 L353 -1 L353 231 L-1 231 L-1 -1 Z"/>
            </clipPath>
            <clipPath clipPathUnits="userSpaceOnUse" id="clipPath22">
                <path d="M254 154 L271 154 L271 172 L254 172 L254 154 Z"/>
            </clipPath>
            <clipPath clipPathUnits="userSpaceOnUse" id="clipPath23">
                <path d="M54 154 L67 154 L67 172 L54 172 L54 154 Z"/>
            </clipPath>
        </defs>
        <g fill="url(#linearGradient1)" font-family="'Segoe UI'" stroke-linejoin="round" stroke="url(#linearGradient1)" stroke-width="0" stroke-miterlimit="0">
            <rect x="10" y="10" clip-path="url(#clipPath1)" width="100" height="106" stroke="none"/>
            <text x="17" y="26" clip-path="url(#clipPath2)" fill="black" stroke="none" xml:space="preserve">«Stereotype»</text>
            <text x="33" y="47" clip-path="url(#clipPath3)" fill="black" stroke="none" xml:space="preserve">Allocate</text>
        </g>
        <g stroke-width="1.1" font-family="'Segoe UI'" stroke-linecap="butt">
            <line clip-path="url(#clipPath4)" fill="none" x1="10" x2="110" y1="55" y2="55"/>
            <line clip-path="url(#clipPath5)" fill="none" x1="10" x2="110" y1="86" y2="86"/>
            <rect x="10" y="10" clip-path="url(#clipPath6)" fill="none" width="99" rx="0" ry="0" height="105"/>
            <rect x="170" y="10" clip-path="url(#clipPath7)" fill="url(#linearGradient2)" width="172" height="106" stroke="none"/>
            <text xml:space="preserve" x="213" y="26" clip-path="url(#clipPath8)" stroke="none">«Stereotype»</text>
            <text xml:space="preserve" x="176" y="47" clip-path="url(#clipPath9)" stroke="none">AllocateActivityPartition</text>
            <line clip-path="url(#clipPath10)" fill="none" x1="170" x2="342" y1="55" y2="55"/>
            <line clip-path="url(#clipPath11)" fill="none" x1="170" x2="342" y1="86" y2="86"/>
            <rect x="170" y="10" clip-path="url(#clipPath12)" fill="none" width="171" rx="0" ry="0" height="105"/>
            <rect x="197" y="170" clip-path="url(#clipPath13)" fill="url(#linearGradient3)" width="117" height="50" stroke="none"/>
            <text xml:space="preserve" x="216" y="188" clip-path="url(#clipPath14)" stroke="none">«Metaclass»</text>
            <text xml:space="preserve" x="204" y="209" clip-path="url(#clipPath15)" stroke="none">ActivityPartition</text>
            <rect x="197" y="170" clip-path="url(#clipPath16)" fill="none" width="116" rx="0" ry="0" height="49"/>
            <rect x="10" y="170" clip-path="url(#clipPath17)" fill="url(#linearGradient4)" width="100" height="50" stroke="none"/>
            <text xml:space="preserve" x="20" y="188" clip-path="url(#clipPath18)" stroke="none">«Metaclass»</text>
            <text xml:space="preserve" x="22" y="209" clip-path="url(#clipPath19)" stroke="none">Abstraction</text>
            <rect x="10" y="170" clip-path="url(#clipPath20)" fill="none" width="99" rx="0" ry="0" height="49"/>
            <line clip-path="url(#clipPath21)" fill="none" text-rendering="optimizeLegibility" x1="303" x2="255" y1="116" y2="170"/>
            <polygon text-rendering="optimizeLegibility" clip-path="url(#clipPath22)" points=" 255 170 261 155 269 162" stroke="none"/>
            <polygon text-rendering="optimizeLegibility" fill="none" clip-path="url(#clipPath22)" points=" 255 170 261 155 269 162"/>
            <line clip-path="url(#clipPath21)" fill="none" text-rendering="optimizeLegibility" x1="60" x2="60" y1="116" y2="170"/>
            <polygon text-rendering="optimizeLegibility" clip-path="url(#clipPath23)" points=" 60 170 55 155 65 155" stroke="none"/>
            <polygon text-rendering="optimizeLegibility" fill="none" clip-path="url(#clipPath23)" points=" 60 170 55 155 65 155"/>
        </g>
    </g>
    <rect x="10" y="10" fill-opacity="0" width="100" title="&#10;            Allocate is a dependency based on UML::abstraction. It is a mechanism for associating elements of different types, or in different hierarchies, at an abstract level. Allocate is used for assessing user model consistency and directing future design activity. It is expected that an «allocate» relationship between model elements is a precursor to a more concrete relationship between the elements, their properties, operations, attributes, or sub-classes.&#10;          " id="Allocate" height="106" stroke-opacity="0">
        <title>
            Allocate is a dependency based on UML::abstraction. It is a mechanism for associating elements of different types, or in different hierarchies, at an abstract level. Allocate is used for assessing user model consistency and directing future design activity. It is expected that an «allocate» relationship between model elements is a precursor to a more concrete relationship between the elements, their properties, operations, attributes, or sub-classes.
          </title>
    </rect>
    <rect x="170" y="10" fill-opacity="0" width="172" title="AllocateActivityPartition is used to depict an «allocate» relationship on an Activity diagram. The AllocateActivityPartition is a standard UML2::ActivityPartition, with modified constraints as stated in the paragraph below." id="AllocateActivityPartition" height="106" stroke-opacity="0">
        <title>AllocateActivityPartition is used to depict an «allocate» relationship on an Activity diagram. The AllocateActivityPartition is a standard UML2::ActivityPartition, with modified constraints as stated in the paragraph below.</title>
    </rect>
    <rect x="197" y="170" fill-opacity="0" width="117" title="An ActivityPartition is a kind of ActivityGroup for identifying ActivityNodes that have some characteristic in common." id="ActivityPartition" height="50" stroke-opacity="0">
        <title>An ActivityPartition is a kind of ActivityGroup for identifying ActivityNodes that have some characteristic in common.</title>
    </rect>
    <rect x="10" y="170" fill-opacity="0" width="100" title="An Abstraction is a Relationship that relates two Elements or sets of Elements that represent the same concept at different levels of abstraction or from different viewpoints." id="Abstraction" height="50" stroke-opacity="0">
        <title>An Abstraction is a Relationship that relates two Elements or sets of Elements that represent the same concept at different levels of abstraction or from different viewpoints.</title>
    </rect>
</svg>
