<?xml version="1.0" encoding="UTF-8"?><svg xmlns="http://www.w3.org/2000/svg" xmlns:xlink="http://www.w3.org/1999/xlink" stroke-dasharray="none" shape-rendering="auto" font-family="'Dialog'" width="760" text-rendering="auto" fill-opacity="1" contentScriptType="text/ecmascript" color-interpolation="auto" color-rendering="auto" preserveAspectRatio="xMidYMid meet" font-size="12" viewBox="0 0 760 230" fill="black" stroke="black" image-rendering="auto" stroke-miterlimit="10" zoomAndPan="magnify" version="1.0" stroke-linecap="square" stroke-linejoin="miter" contentStyleType="text/css" font-style="normal" height="230" stroke-width="1" stroke-dashoffset="0" font-weight="normal" stroke-opacity="1">
    <!--Generated by the Batik Graphics2D SVG Generator-->
    <defs id="genericDefs"/>
    <g>
        <defs id="defs1">
            <linearGradient x1="10" x2="10" y1="10" gradientUnits="userSpaceOnUse" y2="116" xlink:type="simple" xlink:actuate="onLoad" id="linearGradient1" xlink:show="other" spreadMethod="pad">
                <stop stop-opacity="1" stop-color="white" offset="0%"/>
                <stop stop-opacity="1" stop-color="rgb(195,209,213)" offset="100%"/>
            </linearGradient>
            <linearGradient x1="10" x2="10" y1="170" gradientUnits="userSpaceOnUse" y2="220" xlink:type="simple" xlink:actuate="onLoad" id="linearGradient2" xlink:show="other" spreadMethod="pad">
                <stop stop-opacity="1" stop-color="white" offset="0%"/>
                <stop stop-opacity="1" stop-color="rgb(195,215,221)" offset="100%"/>
            </linearGradient>
            <linearGradient x1="170" x2="170" y1="10" gradientUnits="userSpaceOnUse" y2="116" xlink:type="simple" xlink:actuate="onLoad" id="linearGradient3" xlink:show="other" spreadMethod="pad">
                <stop stop-opacity="1" stop-color="white" offset="0%"/>
                <stop stop-opacity="1" stop-color="rgb(195,209,213)" offset="100%"/>
            </linearGradient>
            <linearGradient x1="170" x2="170" y1="170" gradientUnits="userSpaceOnUse" y2="220" xlink:type="simple" xlink:actuate="onLoad" id="linearGradient4" xlink:show="other" spreadMethod="pad">
                <stop stop-opacity="1" stop-color="white" offset="0%"/>
                <stop stop-opacity="1" stop-color="rgb(195,215,221)" offset="100%"/>
            </linearGradient>
            <linearGradient x1="330" x2="330" y1="10" gradientUnits="userSpaceOnUse" y2="116" xlink:type="simple" xlink:actuate="onLoad" id="linearGradient5" xlink:show="other" spreadMethod="pad">
                <stop stop-opacity="1" stop-color="white" offset="0%"/>
                <stop stop-opacity="1" stop-color="rgb(195,209,213)" offset="100%"/>
            </linearGradient>
            <linearGradient x1="330" x2="330" y1="170" gradientUnits="userSpaceOnUse" y2="220" xlink:type="simple" xlink:actuate="onLoad" id="linearGradient6" xlink:show="other" spreadMethod="pad">
                <stop stop-opacity="1" stop-color="white" offset="0%"/>
                <stop stop-opacity="1" stop-color="rgb(195,215,221)" offset="100%"/>
            </linearGradient>
            <linearGradient x1="490" x2="490" y1="10" gradientUnits="userSpaceOnUse" y2="116" xlink:type="simple" xlink:actuate="onLoad" id="linearGradient7" xlink:show="other" spreadMethod="pad">
                <stop stop-opacity="1" stop-color="white" offset="0%"/>
                <stop stop-opacity="1" stop-color="rgb(195,209,213)" offset="100%"/>
            </linearGradient>
            <linearGradient x1="490" x2="490" y1="170" gradientUnits="userSpaceOnUse" y2="220" xlink:type="simple" xlink:actuate="onLoad" id="linearGradient8" xlink:show="other" spreadMethod="pad">
                <stop stop-opacity="1" stop-color="white" offset="0%"/>
                <stop stop-opacity="1" stop-color="rgb(195,215,221)" offset="100%"/>
            </linearGradient>
            <linearGradient x1="650" x2="650" y1="10" gradientUnits="userSpaceOnUse" y2="116" xlink:type="simple" xlink:actuate="onLoad" id="linearGradient9" xlink:show="other" spreadMethod="pad">
                <stop stop-opacity="1" stop-color="white" offset="0%"/>
                <stop stop-opacity="1" stop-color="rgb(195,209,213)" offset="100%"/>
            </linearGradient>
            <linearGradient x1="650" x2="650" y1="170" gradientUnits="userSpaceOnUse" y2="220" xlink:type="simple" xlink:actuate="onLoad" id="linearGradient10" xlink:show="other" spreadMethod="pad">
                <stop stop-opacity="1" stop-color="white" offset="0%"/>
                <stop stop-opacity="1" stop-color="rgb(195,215,221)" offset="100%"/>
            </linearGradient>
            <clipPath clipPathUnits="userSpaceOnUse" id="clipPath1">
                <path d="M10 10 L10 115 L109 115 L109 10 Z"/>
            </clipPath>
            <clipPath clipPathUnits="userSpaceOnUse" id="clipPath2">
                <path d="M16 12 L106 12 L106 34 L16 34 L16 12 Z"/>
            </clipPath>
            <clipPath clipPathUnits="userSpaceOnUse" id="clipPath3">
                <path d="M39 33 L83 33 L83 55 L39 55 L39 33 Z"/>
            </clipPath>
            <clipPath clipPathUnits="userSpaceOnUse" id="clipPath4">
                <path d="M10 54 L111 54 L111 86 L10 86 L10 54 Z"/>
            </clipPath>
            <clipPath clipPathUnits="userSpaceOnUse" id="clipPath5">
                <path d="M10 85 L111 85 L111 117 L10 117 L10 85 Z"/>
            </clipPath>
            <clipPath clipPathUnits="userSpaceOnUse" id="clipPath6">
                <path d="M9 9 L111 9 L111 117 L9 117 L9 9 Z"/>
            </clipPath>
            <clipPath clipPathUnits="userSpaceOnUse" id="clipPath7">
                <path d="M10 170 L10 219 L109 219 L109 170 Z"/>
            </clipPath>
            <clipPath clipPathUnits="userSpaceOnUse" id="clipPath8">
                <path d="M19 174 L102 174 L102 196 L19 196 L19 174 Z"/>
            </clipPath>
            <clipPath clipPathUnits="userSpaceOnUse" id="clipPath9">
                <path d="M21 195 L100 195 L100 217 L21 217 L21 195 Z"/>
            </clipPath>
            <clipPath clipPathUnits="userSpaceOnUse" id="clipPath10">
                <path d="M9 169 L111 169 L111 221 L9 221 L9 169 Z"/>
            </clipPath>
            <clipPath clipPathUnits="userSpaceOnUse" id="clipPath11">
                <path d="M170 10 L170 115 L269 115 L269 10 Z"/>
            </clipPath>
            <clipPath clipPathUnits="userSpaceOnUse" id="clipPath12">
                <path d="M176 12 L266 12 L266 34 L176 34 L176 12 Z"/>
            </clipPath>
            <clipPath clipPathUnits="userSpaceOnUse" id="clipPath13">
                <path d="M177 33 L265 33 L265 55 L177 55 L177 33 Z"/>
            </clipPath>
            <clipPath clipPathUnits="userSpaceOnUse" id="clipPath14">
                <path d="M170 54 L271 54 L271 86 L170 86 L170 54 Z"/>
            </clipPath>
            <clipPath clipPathUnits="userSpaceOnUse" id="clipPath15">
                <path d="M170 85 L271 85 L271 117 L170 117 L170 85 Z"/>
            </clipPath>
            <clipPath clipPathUnits="userSpaceOnUse" id="clipPath16">
                <path d="M169 9 L271 9 L271 117 L169 117 L169 9 Z"/>
            </clipPath>
            <clipPath clipPathUnits="userSpaceOnUse" id="clipPath17">
                <path d="M170 170 L170 219 L269 219 L269 170 Z"/>
            </clipPath>
            <clipPath clipPathUnits="userSpaceOnUse" id="clipPath18">
                <path d="M179 174 L262 174 L262 196 L179 196 L179 174 Z"/>
            </clipPath>
            <clipPath clipPathUnits="userSpaceOnUse" id="clipPath19">
                <path d="M203 195 L239 195 L239 217 L203 217 L203 195 Z"/>
            </clipPath>
            <clipPath clipPathUnits="userSpaceOnUse" id="clipPath20">
                <path d="M169 169 L271 169 L271 221 L169 221 L169 169 Z"/>
            </clipPath>
            <clipPath clipPathUnits="userSpaceOnUse" id="clipPath21">
                <path d="M330 10 L330 115 L429 115 L429 10 Z"/>
            </clipPath>
            <clipPath clipPathUnits="userSpaceOnUse" id="clipPath22">
                <path d="M336 12 L426 12 L426 34 L336 34 L336 12 Z"/>
            </clipPath>
            <clipPath clipPathUnits="userSpaceOnUse" id="clipPath23">
                <path d="M351 33 L410 33 L410 55 L351 55 L351 33 Z"/>
            </clipPath>
            <clipPath clipPathUnits="userSpaceOnUse" id="clipPath24">
                <path d="M330 54 L431 54 L431 86 L330 86 L330 54 Z"/>
            </clipPath>
            <clipPath clipPathUnits="userSpaceOnUse" id="clipPath25">
                <path d="M330 85 L431 85 L431 117 L330 117 L330 85 Z"/>
            </clipPath>
            <clipPath clipPathUnits="userSpaceOnUse" id="clipPath26">
                <path d="M329 9 L431 9 L431 117 L329 117 L329 9 Z"/>
            </clipPath>
            <clipPath clipPathUnits="userSpaceOnUse" id="clipPath27">
                <path d="M330 170 L330 219 L429 219 L429 170 Z"/>
            </clipPath>
            <clipPath clipPathUnits="userSpaceOnUse" id="clipPath28">
                <path d="M339 174 L423 174 L423 196 L339 196 L339 174 Z"/>
            </clipPath>
            <clipPath clipPathUnits="userSpaceOnUse" id="clipPath29">
                <path d="M350 195 L412 195 L412 217 L350 217 L350 195 Z"/>
            </clipPath>
            <clipPath clipPathUnits="userSpaceOnUse" id="clipPath30">
                <path d="M329 169 L431 169 L431 221 L329 221 L329 169 Z"/>
            </clipPath>
            <clipPath clipPathUnits="userSpaceOnUse" id="clipPath31">
                <path d="M490 10 L490 115 L589 115 L589 10 Z"/>
            </clipPath>
            <clipPath clipPathUnits="userSpaceOnUse" id="clipPath32">
                <path d="M496 12 L586 12 L586 34 L496 34 L496 12 Z"/>
            </clipPath>
            <clipPath clipPathUnits="userSpaceOnUse" id="clipPath33">
                <path d="M511 33 L570 33 L570 55 L511 55 L511 33 Z"/>
            </clipPath>
            <clipPath clipPathUnits="userSpaceOnUse" id="clipPath34">
                <path d="M490 54 L591 54 L591 86 L490 86 L490 54 Z"/>
            </clipPath>
            <clipPath clipPathUnits="userSpaceOnUse" id="clipPath35">
                <path d="M490 85 L591 85 L591 117 L490 117 L490 85 Z"/>
            </clipPath>
            <clipPath clipPathUnits="userSpaceOnUse" id="clipPath36">
                <path d="M489 9 L591 9 L591 117 L489 117 L489 9 Z"/>
            </clipPath>
            <clipPath clipPathUnits="userSpaceOnUse" id="clipPath37">
                <path d="M490 170 L490 219 L589 219 L589 170 Z"/>
            </clipPath>
            <clipPath clipPathUnits="userSpaceOnUse" id="clipPath38">
                <path d="M499 174 L582 174 L582 196 L499 196 L499 174 Z"/>
            </clipPath>
            <clipPath clipPathUnits="userSpaceOnUse" id="clipPath39">
                <path d="M506 195 L576 195 L576 217 L506 217 L506 195 Z"/>
            </clipPath>
            <clipPath clipPathUnits="userSpaceOnUse" id="clipPath40">
                <path d="M489 169 L591 169 L591 221 L489 221 L489 169 Z"/>
            </clipPath>
            <clipPath clipPathUnits="userSpaceOnUse" id="clipPath41">
                <path d="M650 10 L650 115 L749 115 L749 10 Z"/>
            </clipPath>
            <clipPath clipPathUnits="userSpaceOnUse" id="clipPath42">
                <path d="M656 12 L746 12 L746 34 L656 34 L656 12 Z"/>
            </clipPath>
            <clipPath clipPathUnits="userSpaceOnUse" id="clipPath43">
                <path d="M682 33 L719 33 L719 55 L682 55 L682 33 Z"/>
            </clipPath>
            <clipPath clipPathUnits="userSpaceOnUse" id="clipPath44">
                <path d="M650 54 L751 54 L751 86 L650 86 L650 54 Z"/>
            </clipPath>
            <clipPath clipPathUnits="userSpaceOnUse" id="clipPath45">
                <path d="M650 85 L751 85 L751 117 L650 117 L650 85 Z"/>
            </clipPath>
            <clipPath clipPathUnits="userSpaceOnUse" id="clipPath46">
                <path d="M649 9 L751 9 L751 117 L649 117 L649 9 Z"/>
            </clipPath>
            <clipPath clipPathUnits="userSpaceOnUse" id="clipPath47">
                <path d="M650 170 L650 219 L749 219 L749 170 Z"/>
            </clipPath>
            <clipPath clipPathUnits="userSpaceOnUse" id="clipPath48">
                <path d="M659 174 L742 174 L742 196 L659 196 L659 174 Z"/>
            </clipPath>
            <clipPath clipPathUnits="userSpaceOnUse" id="clipPath49">
                <path d="M661 195 L740 195 L740 217 L661 217 L661 195 Z"/>
            </clipPath>
            <clipPath clipPathUnits="userSpaceOnUse" id="clipPath50">
                <path d="M649 169 L751 169 L751 221 L649 221 L649 169 Z"/>
            </clipPath>
            <clipPath clipPathUnits="userSpaceOnUse" id="clipPath51">
                <path d="M-1 -1 L761 -1 L761 231 L-1 231 L-1 -1 Z"/>
            </clipPath>
            <clipPath clipPathUnits="userSpaceOnUse" id="clipPath52">
                <path d="M54 154 L67 154 L67 172 L54 172 L54 154 Z"/>
            </clipPath>
            <clipPath clipPathUnits="userSpaceOnUse" id="clipPath53">
                <path d="M214 154 L227 154 L227 172 L214 172 L214 154 Z"/>
            </clipPath>
            <clipPath clipPathUnits="userSpaceOnUse" id="clipPath54">
                <path d="M374 154 L387 154 L387 172 L374 172 L374 154 Z"/>
            </clipPath>
            <clipPath clipPathUnits="userSpaceOnUse" id="clipPath55">
                <path d="M534 154 L547 154 L547 172 L534 172 L534 154 Z"/>
            </clipPath>
            <clipPath clipPathUnits="userSpaceOnUse" id="clipPath56">
                <path d="M694 154 L707 154 L707 172 L694 172 L694 154 Z"/>
            </clipPath>
        </defs>
        <g fill="url(#linearGradient1)" font-family="'Segoe UI'" stroke-linejoin="round" stroke="url(#linearGradient1)" stroke-width="0" stroke-miterlimit="0">
            <rect x="10" y="10" clip-path="url(#clipPath1)" width="100" height="106" stroke="none"/>
            <text x="17" y="26" clip-path="url(#clipPath2)" fill="black" stroke="none" xml:space="preserve">«Stereotype»</text>
            <text x="40" y="47" clip-path="url(#clipPath3)" fill="black" stroke="none" xml:space="preserve">Refine</text>
        </g>
        <g stroke-width="1.1" font-family="'Segoe UI'" stroke-linecap="butt">
            <line clip-path="url(#clipPath4)" fill="none" x1="10" x2="110" y1="55" y2="55"/>
            <line clip-path="url(#clipPath5)" fill="none" x1="10" x2="110" y1="86" y2="86"/>
            <rect x="10" y="10" clip-path="url(#clipPath6)" fill="none" width="99" rx="0" ry="0" height="105"/>
            <rect x="10" y="170" clip-path="url(#clipPath7)" fill="url(#linearGradient2)" width="100" height="50" stroke="none"/>
            <text xml:space="preserve" x="20" y="188" clip-path="url(#clipPath8)" stroke="none">«Metaclass»</text>
            <text xml:space="preserve" x="22" y="209" clip-path="url(#clipPath9)" stroke="none">Abstraction</text>
            <rect x="10" y="170" clip-path="url(#clipPath10)" fill="none" width="99" rx="0" ry="0" height="49"/>
            <rect x="170" y="10" clip-path="url(#clipPath11)" fill="url(#linearGradient3)" width="100" height="106" stroke="none"/>
            <text xml:space="preserve" x="177" y="26" clip-path="url(#clipPath12)" stroke="none">«Stereotype»</text>
            <text xml:space="preserve" x="178" y="47" clip-path="url(#clipPath13)" stroke="none">Requirement</text>
            <line clip-path="url(#clipPath14)" fill="none" x1="170" x2="270" y1="55" y2="55"/>
            <line clip-path="url(#clipPath15)" fill="none" x1="170" x2="270" y1="86" y2="86"/>
            <rect x="170" y="10" clip-path="url(#clipPath16)" fill="none" width="99" rx="0" ry="0" height="105"/>
            <rect x="170" y="170" clip-path="url(#clipPath17)" fill="url(#linearGradient4)" width="100" height="50" stroke="none"/>
            <text xml:space="preserve" x="180" y="188" clip-path="url(#clipPath18)" stroke="none">«Metaclass»</text>
            <text xml:space="preserve" x="204" y="209" clip-path="url(#clipPath19)" stroke="none">Class</text>
            <rect x="170" y="170" clip-path="url(#clipPath20)" fill="none" width="99" rx="0" ry="0" height="49"/>
            <rect x="330" y="10" clip-path="url(#clipPath21)" fill="url(#linearGradient5)" width="100" height="106" stroke="none"/>
            <text xml:space="preserve" x="337" y="26" clip-path="url(#clipPath22)" stroke="none">«Stereotype»</text>
            <text xml:space="preserve" x="352" y="47" clip-path="url(#clipPath23)" stroke="none">TestCase</text>
            <line clip-path="url(#clipPath24)" fill="none" x1="330" x2="430" y1="55" y2="55"/>
            <line clip-path="url(#clipPath25)" fill="none" x1="330" x2="430" y1="86" y2="86"/>
            <rect x="330" y="10" clip-path="url(#clipPath26)" fill="none" width="99" rx="0" ry="0" height="105"/>
            <rect x="330" y="170" clip-path="url(#clipPath27)" fill="url(#linearGradient6)" width="100" height="50" stroke="none"/>
            <text x="340" y="188" clip-path="url(#clipPath28)" font-style="italic" stroke="none" xml:space="preserve">«Metaclass»</text>
            <text x="351" y="209" clip-path="url(#clipPath29)" font-style="italic" stroke="none" xml:space="preserve">Behavior</text>
            <rect x="330" y="170" clip-path="url(#clipPath30)" fill="none" width="99" rx="0" ry="0" height="49"/>
            <rect x="490" y="10" clip-path="url(#clipPath31)" fill="url(#linearGradient7)" width="100" height="106" stroke="none"/>
            <text xml:space="preserve" x="497" y="26" clip-path="url(#clipPath32)" stroke="none">«Stereotype»</text>
            <text xml:space="preserve" x="512" y="47" clip-path="url(#clipPath33)" stroke="none">TestCase</text>
            <line clip-path="url(#clipPath34)" fill="none" x1="490" x2="590" y1="55" y2="55"/>
            <line clip-path="url(#clipPath35)" fill="none" x1="490" x2="590" y1="86" y2="86"/>
            <rect x="490" y="10" clip-path="url(#clipPath36)" fill="none" width="99" rx="0" ry="0" height="105"/>
            <rect x="490" y="170" clip-path="url(#clipPath37)" fill="url(#linearGradient8)" width="100" height="50" stroke="none"/>
            <text xml:space="preserve" x="500" y="188" clip-path="url(#clipPath38)" stroke="none">«Metaclass»</text>
            <text xml:space="preserve" x="507" y="209" clip-path="url(#clipPath39)" stroke="none">Operation</text>
            <rect x="490" y="170" clip-path="url(#clipPath40)" fill="none" width="99" rx="0" ry="0" height="49"/>
            <rect x="650" y="10" clip-path="url(#clipPath41)" fill="url(#linearGradient9)" width="100" height="106" stroke="none"/>
            <text xml:space="preserve" x="657" y="26" clip-path="url(#clipPath42)" stroke="none">«Stereotype»</text>
            <text xml:space="preserve" x="683" y="47" clip-path="url(#clipPath43)" stroke="none">Trace</text>
            <line clip-path="url(#clipPath44)" fill="none" x1="650" x2="750" y1="55" y2="55"/>
            <line clip-path="url(#clipPath45)" fill="none" x1="650" x2="750" y1="86" y2="86"/>
            <rect x="650" y="10" clip-path="url(#clipPath46)" fill="none" width="99" rx="0" ry="0" height="105"/>
            <rect x="650" y="170" clip-path="url(#clipPath47)" fill="url(#linearGradient10)" width="100" height="50" stroke="none"/>
            <text xml:space="preserve" x="660" y="188" clip-path="url(#clipPath48)" stroke="none">«Metaclass»</text>
            <text xml:space="preserve" x="662" y="209" clip-path="url(#clipPath49)" stroke="none">Abstraction</text>
            <rect x="650" y="170" clip-path="url(#clipPath50)" fill="none" width="99" rx="0" ry="0" height="49"/>
            <line clip-path="url(#clipPath51)" fill="none" text-rendering="optimizeLegibility" x1="60" x2="60" y1="116" y2="170"/>
            <polygon text-rendering="optimizeLegibility" clip-path="url(#clipPath52)" points=" 60 170 55 155 65 155" stroke="none"/>
            <polygon text-rendering="optimizeLegibility" fill="none" clip-path="url(#clipPath52)" points=" 60 170 55 155 65 155"/>
            <line clip-path="url(#clipPath51)" fill="none" text-rendering="optimizeLegibility" x1="220" x2="220" y1="116" y2="170"/>
            <polygon text-rendering="optimizeLegibility" clip-path="url(#clipPath53)" points=" 220 170 215 155 225 155" stroke="none"/>
            <polygon text-rendering="optimizeLegibility" fill="none" clip-path="url(#clipPath53)" points=" 220 170 215 155 225 155"/>
            <line clip-path="url(#clipPath51)" fill="none" text-rendering="optimizeLegibility" x1="380" x2="380" y1="116" y2="170"/>
            <polygon text-rendering="optimizeLegibility" clip-path="url(#clipPath54)" points=" 380 170 375 155 385 155" stroke="none"/>
            <polygon text-rendering="optimizeLegibility" fill="none" clip-path="url(#clipPath54)" points=" 380 170 375 155 385 155"/>
            <line clip-path="url(#clipPath51)" fill="none" text-rendering="optimizeLegibility" x1="540" x2="540" y1="116" y2="170"/>
            <polygon text-rendering="optimizeLegibility" clip-path="url(#clipPath55)" points=" 540 170 535 155 545 155" stroke="none"/>
            <polygon text-rendering="optimizeLegibility" fill="none" clip-path="url(#clipPath55)" points=" 540 170 535 155 545 155"/>
            <line clip-path="url(#clipPath51)" fill="none" text-rendering="optimizeLegibility" x1="700" x2="700" y1="116" y2="170"/>
            <polygon text-rendering="optimizeLegibility" clip-path="url(#clipPath56)" points=" 700 170 695 155 705 155" stroke="none"/>
            <polygon text-rendering="optimizeLegibility" fill="none" clip-path="url(#clipPath56)" points=" 700 170 695 155 705 155"/>
        </g>
    </g>
    <rect x="10" y="10" fill-opacity="0" width="100" id="Refine" height="106" stroke-opacity="0"/>
    <rect x="10" y="170" fill-opacity="0" width="100" title="An Abstraction is a Relationship that relates two Elements or sets of Elements that represent the same concept at different levels of abstraction or from different viewpoints." id="Abstraction" height="50" stroke-opacity="0">
        <title>An Abstraction is a Relationship that relates two Elements or sets of Elements that represent the same concept at different levels of abstraction or from different viewpoints.</title>
    </rect>
    <rect x="170" y="10" fill-opacity="0" width="100" title="&#10;            A requirement specifies a capability or condition that must (or should) be satisfied. A requirement may specify a function that a system must perform or a performance condition that a system must satisfy. Requirements are used to establish a contract between the customer (or other stakeholder) and those responsible for designing and implementing the system.&#10;          " id="Requirement" height="106" stroke-opacity="0">
        <title>
            A requirement specifies a capability or condition that must (or should) be satisfied. A requirement may specify a function that a system must perform or a performance condition that a system must satisfy. Requirements are used to establish a contract between the customer (or other stakeholder) and those responsible for designing and implementing the system.
          </title>
    </rect>
    <rect x="170" y="170" fill-opacity="0" width="100" title="A Class classifies a set of objects and specifies the features that characterize the structure and behavior of those objects.  A Class may have an internal structure and Ports." id="Class" height="50" stroke-opacity="0">
        <title>A Class classifies a set of objects and specifies the features that characterize the structure and behavior of those objects.  A Class may have an internal structure and Ports.</title>
    </rect>
    <rect x="330" y="10" fill-opacity="0" width="100" title="A test case is a method for verifying a requirement is satisfied." id="TestCase" height="106" stroke-opacity="0">
        <title>A test case is a method for verifying a requirement is satisfied.</title>
    </rect>
    <rect x="330" y="170" fill-opacity="0" width="100" title="Behavior is a specification of how its context BehavioredClassifier changes state over time. This specification may be either a definition of possible behavior execution or emergent behavior, or a selective illustration of an interesting subset of possible executions. The latter form is typically used for capturing examples, such as a trace of a particular execution." id="Behavior" height="50" stroke-opacity="0">
        <title>Behavior is a specification of how its context BehavioredClassifier changes state over time. This specification may be either a definition of possible behavior execution or emergent behavior, or a selective illustration of an interesting subset of possible executions. The latter form is typically used for capturing examples, such as a trace of a particular execution.</title>
    </rect>
    <rect x="490" y="10" fill-opacity="0" width="100" title="A test case is a method for verifying a requirement is satisfied." id="TestCase" height="106" stroke-opacity="0">
        <title>A test case is a method for verifying a requirement is satisfied.</title>
    </rect>
    <rect x="490" y="170" fill-opacity="0" width="100" title="An Operation is a BehavioralFeature of a Classifier that specifies the name, type, parameters, and constraints for invoking an associated Behavior. An Operation may invoke both the execution of method behaviors as well as other behavioral responses. Operation specializes TemplateableElement in order to support specification of template operations and bound operations. Operation specializes ParameterableElement to specify that an operation can be exposed as a formal template parameter, and provided as an actual parameter in a binding of a template." id="Operation" height="50" stroke-opacity="0">
        <title>An Operation is a BehavioralFeature of a Classifier that specifies the name, type, parameters, and constraints for invoking an associated Behavior. An Operation may invoke both the execution of method behaviors as well as other behavioral responses. Operation specializes TemplateableElement in order to support specification of template operations and bound operations. Operation specializes ParameterableElement to specify that an operation can be exposed as a formal template parameter, and provided as an actual parameter in a binding of a template.</title>
    </rect>
    <rect x="650" y="10" fill-opacity="0" width="100" id="Trace" height="106" stroke-opacity="0"/>
    <rect x="650" y="170" fill-opacity="0" width="100" title="An Abstraction is a Relationship that relates two Elements or sets of Elements that represent the same concept at different levels of abstraction or from different viewpoints." id="Abstraction" height="50" stroke-opacity="0">
        <title>An Abstraction is a Relationship that relates two Elements or sets of Elements that represent the same concept at different levels of abstraction or from different viewpoints.</title>
    </rect>
</svg>
